<svg width="285" height="49" viewBox="0 0 285 49" fill="none" xmlns="http://www.w3.org/2000/svg">
<path d="M93 44.0621V13.2763C93 13.0864 93.1537 12.9283 93.348 12.9283H96.7691C96.9589 12.9283 97.1171 13.0819 97.1171 13.2763V25.6683C97.1171 25.8581 97.2708 26.0163 97.4651 26.0163H113.825C114.015 26.0163 114.173 25.8626 114.173 25.6683V13.2763C114.173 13.0864 114.327 12.9283 114.521 12.9283H114.535C114.725 12.9283 114.883 13.0819 114.883 13.2763V44.0621C114.883 44.2519 114.729 44.4101 114.535 44.4101H114.521C114.331 44.4101 114.173 44.2564 114.173 44.0621V27.11C114.173 26.9202 114.019 26.762 113.825 26.762H97.4651C97.2753 26.762 97.1171 26.9157 97.1171 27.11V44.0621C97.1171 44.2519 96.9635 44.4101 96.7691 44.4101H93.348C93.1582 44.4101 93 44.2564 93 44.0621Z" fill="black"/>
<path d="M207.593 44.0621V13.2763C207.593 13.0864 207.746 12.9283 207.941 12.9283H211.362C211.552 12.9283 211.71 13.0819 211.71 13.2763V25.6683C211.71 25.8581 211.864 26.0163 212.058 26.0163H228.418C228.608 26.0163 228.766 25.8626 228.766 25.6683V13.2763C228.766 13.0864 228.92 12.9283 229.114 12.9283H229.127C229.317 12.9283 229.475 13.0819 229.475 13.2763V44.0621C229.475 44.2519 229.322 44.4101 229.127 44.4101H229.114C228.924 44.4101 228.766 44.2564 228.766 44.0621V27.11C228.766 26.9202 228.612 26.762 228.418 26.762H212.058C211.868 26.762 211.71 26.9157 211.71 27.11V44.0621C211.71 44.2519 211.556 44.4101 211.362 44.4101H207.941C207.751 44.4101 207.593 44.2564 207.593 44.0621Z" fill="black"/>
<path d="M143.146 44.1389L139.16 34.3093C139.106 34.1782 138.98 34.0923 138.839 34.0923H125.372C125.232 34.0923 125.11 34.1737 125.055 34.3002L120.776 44.1434C120.721 44.2699 120.595 44.3513 120.459 44.3513H120.423C120.175 44.3513 120.007 44.0937 120.107 43.8677L133.941 12.047C134.063 11.7668 134.465 11.7713 134.578 12.056L147.458 43.8767C147.548 44.1027 147.381 44.3513 147.137 44.3513H143.472C143.332 44.3513 143.205 44.2654 143.151 44.1343L143.146 44.1389ZM138.632 32.9218L132.689 18.252C132.571 17.9673 132.173 17.9628 132.051 18.243L125.652 32.9128C125.553 33.1433 125.72 33.3964 125.968 33.3964H138.311C138.555 33.3964 138.727 33.1478 138.632 32.9218Z" fill="black"/>
<path d="M165.197 28.4477V44.062C165.197 44.2518 165.044 44.41 164.849 44.41H161.478C161.288 44.41 161.13 44.2563 161.13 44.062V29.6408C161.13 29.573 161.112 29.5052 161.071 29.451L150.577 13.4705C150.428 13.2401 150.591 12.9327 150.866 12.9327H155.187C155.304 12.9327 155.417 12.9915 155.481 13.0954L164.456 27.2455C164.592 27.4579 164.903 27.4624 165.039 27.2455L174.109 13.0909C174.173 12.9915 174.281 12.9327 174.403 12.9327H174.471C174.747 12.9327 174.909 13.2355 174.765 13.466L165.251 28.2624C165.215 28.3166 165.197 28.3844 165.197 28.4477Z" fill="black"/>
<path d="M180.324 39.0772L180.432 39.0184C180.59 38.928 180.794 38.9777 180.893 39.1314C182.443 41.4769 184.92 43.8631 189.787 43.8631C194.049 43.8631 198.216 41.73 198.216 38.9054C198.216 36.5734 196.58 34.246 191.473 31.7197C187.46 29.7357 180.319 25.971 180.319 21.6054C180.319 17.8362 183.343 12.535 190.235 12.535C194.984 12.535 197.832 14.3925 199.987 17.5244C200.1 17.6916 200.046 17.9221 199.87 18.0215L199.766 18.0803C199.617 18.1661 199.427 18.1255 199.318 17.9899C197.47 15.5946 195.188 13.3214 190.677 13.3214C186.859 13.3214 183.736 14.7585 183.736 18.8214C183.736 21.3975 184.974 23.5306 188.644 25.3655C197.271 29.7763 201.334 32.2575 201.334 36.6186C201.334 42.3175 196.227 44.6992 190.578 44.6992C185.607 44.6992 182.375 43.244 180.193 39.5517C180.093 39.3845 180.152 39.1675 180.319 39.0726L180.324 39.0772Z" fill="black"/>
<path d="M251.534 28.2985H240.182C239.992 28.2985 239.834 28.4522 239.834 28.6465V43.3208C239.834 43.5107 239.987 43.6688 240.182 43.6688H256.691C256.881 43.6688 257.039 43.8225 257.039 44.0168V44.0665C257.039 44.2563 256.885 44.4145 256.691 44.4145H236.069C235.879 44.4145 235.721 44.2609 235.721 44.0665V13.2807C235.721 13.0909 235.875 12.9327 236.069 12.9327H255.945C256.135 12.9327 256.293 13.0864 256.293 13.2807V13.3304C256.293 13.5202 256.14 13.6784 255.945 13.6784H240.182C239.992 13.6784 239.834 13.8321 239.834 14.0264V27.2636C239.834 27.4534 239.987 27.6116 240.182 27.6116H251.534C251.724 27.6116 251.882 27.7652 251.882 27.9596C251.882 28.1539 251.729 28.3076 251.534 28.3076V28.2985Z" fill="black"/>
<path d="M263 13.0683C269.923 20.8913 276.766 28.8002 283.644 36.6684C283.856 36.9079 284.254 36.7587 284.254 36.4379V13.2717C284.254 13.0819 284.408 12.9237 284.602 12.9237H284.652C284.842 12.9237 285 13.0773 285 13.2717V44.1524C285 44.4733 284.598 44.6224 284.39 44.3784L263.75 20.1366C263.542 19.8925 263.14 20.0371 263.14 20.3625V44.0575C263.14 44.2473 262.986 44.4055 262.792 44.4055H262.742C262.552 44.4055 262.394 44.2518 262.394 44.0575V13.2988C262.394 12.9779 262.792 12.8288 263 13.0683Z" fill="black"/>
<path d="M18.4967 47.5134L18.5866 28.6857L11.4785 33.7131V47.5134" stroke="black" stroke-width="1.008" stroke-miterlimit="2.61313" stroke-linecap="round" stroke-linejoin="round"/>
<path fill-rule="evenodd" clip-rule="evenodd" d="M16.4987 24.0772L13.876 25.9924V31.9953L16.4987 30.1167V24.0772Z" stroke="black" stroke-width="1.008" stroke-miterlimit="2.61313" stroke-linecap="round" stroke-linejoin="round"/>
<path d="M24.5928 47.5134V15.2793L20.9556 17.793V47.5134" stroke="black" stroke-width="1.008" stroke-miterlimit="2.61313" stroke-linecap="round" stroke-linejoin="round"/>
<path d="M24.5928 47.5134V15.2793L28.025 17.6136V21.8113" stroke="black" stroke-width="1.008" stroke-miterlimit="2.61313" stroke-linecap="round" stroke-linejoin="round"/>
<path d="M33.942 47.5134V17.5534L26.8726 22.6405V47.5134" stroke="black" stroke-width="1.008" stroke-miterlimit="2.61313" stroke-linecap="round" stroke-linejoin="round"/>
<path d="M33.9419 47.5134V17.5534L40.9089 22.3412V47.5134" stroke="black" stroke-width="1.008" stroke-miterlimit="2.61313" stroke-linecap="round" stroke-linejoin="round"/>
<path fill-rule="evenodd" clip-rule="evenodd" d="M16.499 24.0772L20.9557 27.0746V31.4832L18.5868 28.6857L16.499 30.0333V24.0772Z" stroke="black" stroke-width="1.008" stroke-miterlimit="2.61313" stroke-linecap="round" stroke-linejoin="round"/>
<path fill-rule="evenodd" clip-rule="evenodd" d="M42.4073 4.1618L35.4321 8.85983V18.5778L40.9086 22.3412V29.7465L42.4073 28.7659V4.1618Z" stroke="black" stroke-width="1.008" stroke-miterlimit="2.61313"/>
<path d="M35.4321 8.85983V2.09645" stroke="#323AA3" stroke-width="1.67904" stroke-miterlimit="2.61313" stroke-linecap="round"/>
<path d="M35.4321 8.85983V2.09645" stroke="#323AA3" stroke-width="1.67904" stroke-miterlimit="2.61313" stroke-linecap="round"/>
<path d="M35.4321 8.85983V2.09645" stroke="#323AA3" stroke-width="1.67904" stroke-miterlimit="2.61313" stroke-linecap="round"/>
<path d="M47.3328 0.839605L30.5386 12.1677" stroke="#323AA3" stroke-width="1.67904" stroke-miterlimit="2.61313" stroke-linecap="round"/>
<path d="M47.3328 0.839605L30.5386 12.1677" stroke="#323AA3" stroke-width="1.67904" stroke-miterlimit="2.61313" stroke-linecap="round"/>
<path fill-rule="evenodd" clip-rule="evenodd" d="M42.4077 4.1618L49.5794 9.00959V23.7399L47.9146 24.8333L47.8553 30.3337L43.9141 27.7805L42.4077 28.7659V4.1618Z" stroke="black" stroke-width="1.008" stroke-miterlimit="2.61313"/>
<path d="M43.9141 47.5134V27.7805L50.9111 32.3293V47.5134" stroke="black" stroke-width="1.008" stroke-miterlimit="2.61313" stroke-linecap="round" stroke-linejoin="round"/>
<path d="M54.83 47.5134V20.2907L47.9143 24.8333L47.855 30.3337" stroke="black" stroke-width="1.008" stroke-miterlimit="2.61313" stroke-linecap="round" stroke-linejoin="round"/>
<path fill-rule="evenodd" clip-rule="evenodd" d="M56.405 12.5394L51.9854 15.5318V22.1591L54.8682 20.2907L56.405 21.2957V12.5394Z" stroke="black" stroke-width="1.008" stroke-miterlimit="2.61313"/>
<path d="M51.9854 15.5318L61.4832 9.12538" stroke="#D57C28" stroke-width="1.67904" stroke-miterlimit="2.61313" stroke-linecap="round" stroke-linejoin="round"/>
<path d="M51.9854 15.5318L61.4832 9.12538" stroke="#D57C28" stroke-width="1.67904" stroke-miterlimit="2.61313" stroke-linecap="round" stroke-linejoin="round"/>
<path d="M56.4053 12.5394V5.89617" stroke="#D57C28" stroke-width="1.67904" stroke-miterlimit="2.61313" stroke-linecap="round" stroke-linejoin="round"/>
<path d="M56.4053 12.5394V5.89617" stroke="#D57C28" stroke-width="1.67904" stroke-miterlimit="2.61313" stroke-linecap="round" stroke-linejoin="round"/>
<path d="M57.8783 47.5134V22.2357L56.4053 21.2957V12.5394L66.9036 19.4223V47.5134" stroke="black" stroke-width="1.008" stroke-miterlimit="2.61313"/>
<path d="M66.9033 19.4223V12.7786" stroke="#D57C28" stroke-width="1.67904" stroke-miterlimit="2.61313" stroke-linecap="round" stroke-linejoin="round"/>
<path d="M66.9033 19.4223V12.7786" stroke="#D57C28" stroke-width="1.67904" stroke-miterlimit="2.61313" stroke-linecap="round" stroke-linejoin="round"/>
<path d="M66.9033 19.4223V12.7786" stroke="#D57C28" stroke-width="1.67904" stroke-miterlimit="2.61313" stroke-linecap="round" stroke-linejoin="round"/>
<path d="M69.5707 48.5909H8.81104V46.4362H69.5707V48.5909Z" fill="black"/>
<path d="M78.3815 47.8724H0V47.1544H78.3815V47.8724Z" fill="black"/>
<path d="M28.0251 17.6136L20.1304 12.2691" stroke="#C6272C" stroke-width="1.67904" stroke-miterlimit="2.61313" stroke-linecap="round"/>
<path d="M28.0251 17.6136L20.1304 12.2691" stroke="#C6272C" stroke-width="1.67904" stroke-miterlimit="2.61313" stroke-linecap="round"/>
<path d="M28.0251 17.6136L20.1304 12.2691" stroke="#C6272C" stroke-width="1.67904" stroke-miterlimit="2.61313" stroke-linecap="round"/>
<path d="M20.7773 26.9543L11.5957 20.761" stroke="#C6272C" stroke-width="1.67904" stroke-miterlimit="2.61313" stroke-linecap="round"/>
<path d="M20.7773 26.9543L11.5957 20.761" stroke="#C6272C" stroke-width="1.67904" stroke-miterlimit="2.61313" stroke-linecap="round"/>
<path d="M20.7773 26.9543L11.5957 20.761" stroke="#C6272C" stroke-width="1.67904" stroke-miterlimit="2.61313" stroke-linecap="round"/>
<path d="M18.5251 28.7285L8.96094 35.4115" stroke="#C6272C" stroke-width="1.67904" stroke-miterlimit="2.61313" stroke-linecap="round"/>
<path d="M18.5251 28.7285L8.96094 35.4115" stroke="#C6272C" stroke-width="1.67904" stroke-miterlimit="2.61313" stroke-linecap="round"/>
<path d="M18.5251 28.7285L8.96094 35.4115" stroke="#C6272C" stroke-width="1.67904" stroke-miterlimit="2.61313" stroke-linecap="round"/>
<path d="M47.9146 24.8333L57.6013 18.4469" stroke="#D57C28" stroke-width="1.67904" stroke-miterlimit="2.61313" stroke-linecap="round" stroke-linejoin="round"/>
<path d="M47.9146 24.8333L57.6013 18.4469" stroke="#D57C28" stroke-width="1.67904" stroke-miterlimit="2.61313" stroke-linecap="round" stroke-linejoin="round"/>
<path d="M47.9146 24.8333L57.6013 18.4469" stroke="#D57C28" stroke-width="1.67904" stroke-miterlimit="2.61313" stroke-linecap="round" stroke-linejoin="round"/>
<path d="M51.9854 15.5318L61.4832 9.12538" stroke="#D57C28" stroke-width="1.67904" stroke-miterlimit="2.61313" stroke-linecap="round" stroke-linejoin="round"/>
<path d="M56.4053 12.5394V5.89617" stroke="#D57C28" stroke-width="1.67904" stroke-miterlimit="2.61313" stroke-linecap="round" stroke-linejoin="round"/>
<path d="M47.3328 0.839605L30.5386 12.1677" stroke="#323AA3" stroke-width="1.67904" stroke-miterlimit="2.61313" stroke-linecap="round"/>
</svg>
