<svg width="192" height="33" viewBox="0 0 192 33" fill="none" xmlns="http://www.w3.org/2000/svg">
<path d="M0 32.2225V1.43665C0 1.24683 0.153656 1.08865 0.347988 1.08865H3.76914C3.95895 1.08865 4.11713 1.24231 4.11713 1.43665V13.8287C4.11713 14.0185 4.27079 14.1767 4.46512 14.1767H20.8252C21.015 14.1767 21.1732 14.023 21.1732 13.8287V1.43665C21.1732 1.24683 21.3268 1.08865 21.5211 1.08865H21.5347C21.7245 1.08865 21.8827 1.24231 21.8827 1.43665V32.2225C21.8827 32.4123 21.729 32.5705 21.5347 32.5705H21.5211C21.3313 32.5705 21.1732 32.4168 21.1732 32.2225V15.2704C21.1732 15.0806 21.0195 14.9224 20.8252 14.9224H4.46512C4.2753 14.9224 4.11713 15.076 4.11713 15.2704V32.2225C4.11713 32.4123 3.96347 32.5705 3.76914 32.5705H0.347988C0.158176 32.5705 0 32.4168 0 32.2225Z" fill="currentColor"/>
<path d="M114.593 32.2225V1.43665C114.593 1.24683 114.746 1.08865 114.941 1.08865H118.362C118.552 1.08865 118.71 1.24231 118.71 1.43665V13.8287C118.71 14.0185 118.864 14.1767 119.058 14.1767H135.418C135.608 14.1767 135.766 14.023 135.766 13.8287V1.43665C135.766 1.24683 135.92 1.08865 136.114 1.08865H136.127C136.317 1.08865 136.475 1.24231 136.475 1.43665V32.2225C136.475 32.4123 136.322 32.5705 136.127 32.5705H136.114C135.924 32.5705 135.766 32.4168 135.766 32.2225V15.2704C135.766 15.0806 135.612 14.9224 135.418 14.9224H119.058C118.868 14.9224 118.71 15.076 118.71 15.2704V32.2225C118.71 32.4123 118.556 32.5705 118.362 32.5705H114.941C114.751 32.5705 114.593 32.4168 114.593 32.2225Z" fill="currentColor"/>
<path d="M50.1464 32.2993L46.1604 22.4697C46.1061 22.3386 45.9796 22.2527 45.8395 22.2527H32.3718C32.2317 22.2527 32.1097 22.3341 32.0555 22.4606L27.7756 32.3038C27.7214 32.4303 27.5949 32.5117 27.4593 32.5117H27.4231C27.1746 32.5117 27.0074 32.2541 27.1068 32.0281L40.9405 0.207355C41.0625 -0.072845 41.4648 -0.0683237 41.5777 0.216395L54.4579 32.0371C54.5483 32.2631 54.3811 32.5117 54.137 32.5117H50.4718C50.3317 32.5117 50.2052 32.4258 50.1509 32.2947L50.1464 32.2993ZM45.6316 21.0822L39.6886 6.41243C39.5711 6.12771 39.1734 6.12318 39.0514 6.40338L32.652 21.0732C32.5526 21.3037 32.7198 21.5568 32.9684 21.5568H45.3107C45.5548 21.5568 45.7265 21.3082 45.6316 21.0822Z" fill="currentColor"/>
<path d="M72.1972 16.6081V32.2224C72.1972 32.4122 72.0435 32.5704 71.8492 32.5704H68.4778C68.288 32.5704 68.1298 32.4167 68.1298 32.2224V17.8012C68.1298 17.7334 68.1117 17.6656 68.071 17.6114L57.5771 1.63094C57.428 1.40045 57.5906 1.09313 57.8663 1.09313H62.1868C62.3043 1.09313 62.4173 1.15189 62.4806 1.25583L71.456 15.4059C71.5916 15.6183 71.9034 15.6228 72.039 15.4059L81.1093 1.25131C81.1726 1.15188 81.2811 1.09313 81.4031 1.09313H81.4709C81.7466 1.09313 81.9093 1.39593 81.7647 1.62641L72.2514 16.4228C72.2153 16.477 72.1972 16.5448 72.1972 16.6081Z" fill="currentColor"/>
<path d="M87.3236 27.2376L87.4321 27.1788C87.5903 27.0884 87.7937 27.1381 87.8931 27.2918C89.4432 29.6373 91.9198 32.0235 96.7872 32.0235C101.049 32.0235 105.216 29.8904 105.216 27.0658C105.216 24.7338 103.58 22.4064 98.4729 19.8801C94.4597 17.8961 87.3191 14.1314 87.3191 9.76575C87.3191 5.99661 90.3426 0.695417 97.2346 0.695417C101.984 0.695417 104.832 2.55287 106.987 5.68478C107.1 5.85199 107.046 6.08248 106.87 6.18191L106.766 6.24066C106.617 6.32653 106.427 6.28585 106.318 6.15027C104.47 3.75501 102.188 1.48179 97.6775 1.48179C93.8586 1.48179 90.7358 2.91893 90.7358 6.98183C90.7358 9.55786 91.974 11.691 95.6438 13.5258C104.271 17.9367 108.334 20.4179 108.334 24.779C108.334 30.4779 103.227 32.8596 97.578 32.8596C92.6068 32.8596 89.3754 31.4044 87.1926 27.7121C87.0932 27.5449 87.1519 27.3279 87.3191 27.233L87.3236 27.2376Z" fill="currentColor"/>
<path d="M158.534 16.4589H147.182C146.992 16.4589 146.834 16.6126 146.834 16.8069V31.4812C146.834 31.6711 146.987 31.8292 147.182 31.8292H163.691C163.881 31.8292 164.039 31.9829 164.039 32.1772V32.2269C164.039 32.4167 163.885 32.5749 163.691 32.5749H143.069C142.879 32.5749 142.721 32.4213 142.721 32.2269V1.44112C142.721 1.25131 142.875 1.09313 143.069 1.09313H162.945C163.135 1.09313 163.293 1.24679 163.293 1.44112V1.49083C163.293 1.68064 163.14 1.83882 162.945 1.83882H147.182C146.992 1.83882 146.834 1.99248 146.834 2.18682V15.424C146.834 15.6138 146.987 15.772 147.182 15.772H158.534C158.724 15.772 158.882 15.9256 158.882 16.12C158.882 16.3143 158.729 16.468 158.534 16.468V16.4589Z" fill="currentColor"/>
<path d="M170 1.2287C176.923 9.05169 183.766 16.9606 190.644 24.8287C190.856 25.0683 191.254 24.9191 191.254 24.5983V1.43207C191.254 1.24226 191.408 1.08408 191.602 1.08408H191.652C191.842 1.08408 192 1.23774 192 1.43207V32.3128C192 32.6337 191.598 32.7828 191.39 32.5388L170.75 8.29696C170.542 8.05291 170.14 8.19753 170.14 8.52292V32.2179C170.14 32.4077 169.986 32.5659 169.792 32.5659H169.742C169.552 32.5659 169.394 32.4122 169.394 32.2179V1.45918C169.394 1.13831 169.792 0.989175 170 1.2287Z" fill="currentColor"/>
</svg>
