<svg
  xmlns="http://www.w3.org/2000/svg"
  viewBox="26 0 80 50"
  fill="none"
>
  <rect x="26" width="80" height="50" rx="9" fill="#fff" />

  <g stroke="#111" stroke-linecap="round" stroke-linejoin="round">
    <path d="M45.404 47.513l.09-18.827-7.108 5.027v13.8" />
    <path d="M43.406 24.077l-2.623 1.915v6.003l2.623-1.878v-6.04Z" />
    <path d="M51.5 47.513V15.28l-3.637 2.513v29.72" />
    <path d="M51.5 47.513V15.28l3.432 2.334v4.198" />
    <path d="M60.849 47.513v-29.96L53.78 22.64v24.873" />
    <path d="M60.849 47.513v-29.96l6.967 4.788v25.172" />
    <path d="m43.406 24.077 4.457 2.998v4.408l-2.369-2.797-2.088 1.347v-5.956Z" />
    <path d="m69.315 4.162-6.976 4.698v9.718l5.477 3.763v7.406l1.499-.981V4.162Z" />
    <path d="m69.315 4.162 7.172 4.848v14.73l-1.665 1.093-.06 5.5-3.941-2.552-1.506.985V4.162Z" />
    <path d="M70.821 47.513V27.781l6.997 4.548v15.184" />
    <path d="M81.737 47.513V20.291l-6.916 4.542-.059 5.501" />
    <path d="m83.312 12.54-4.419 2.992v6.627l2.882-1.868 1.537 1.005V12.54Z" />
    <path d="M84.786 47.513V22.236l-1.474-.94V12.54l10.499 6.882v28.091" />
  </g>

  <g stroke-width="1.68" stroke-linecap="round">
    <path d="M62.339 8.86V2.096M74.24.84 57.446 12.168" stroke="#323AA3" />
    <path d="M54.932 17.614 47.038 12.27M47.685 26.954 38.503 20.76M45.432 28.729l-9.564 6.683" stroke="#C6272C" />
    <path d="m78.893 15.532 9.497-6.407M83.313 12.54V5.896M93.811 19.422v-6.643M74.822 24.833l9.687-6.386" stroke="#D57C28" />
  </g>

  <path d="M96.478 48.591h-60.76v-2.155h60.76v2.155Z" fill="#111" />
  <path d="M105.289 47.872H26.907v-.718h78.382v.718Z" fill="#111" />
</svg>
